<?xml version="1.0" standalone="no"?>
<!DOCTYPE svg PUBLIC "-//W3C//DTD SVG 20010904//EN"
 "http://www.w3.org/TR/2001/REC-SVG-20010904/DTD/svg10.dtd">
<svg version="1.0" xmlns="http://www.w3.org/2000/svg"
 width="200.000000pt" height="200.000000pt" viewBox="0 0 200.000000 200.000000"
 preserveAspectRatio="xMidYMid meet">
<metadata>
Created by potrace 1.14, written by Peter Selinger 2001-2017
</metadata>
<g transform="translate(0.000000,200.000000) scale(0.100000,-0.100000)"
fill="#000000" stroke="none">
<path d="M0 1000 l0 -1000 1000 0 1000 0 0 1000 0 1000 -1000 0 -1000 0 0
-1000z m288 93 l-3 -38 -62 -3 c-46 -2 -63 -7 -63 -17 0 -10 16 -15 53 -17
l52 -3 3 -37 3 -38 -55 0 c-49 0 -56 -2 -56 -20 0 -18 7 -20 65 -20 l65 0 0
-35 0 -35 -110 0 -110 0 0 150 0 150 111 0 110 0 -3 -37z m112 -113 l0 -150
-40 0 -40 0 0 150 0 150 40 0 40 0 0 -150z m130 35 l0 -115 64 0 65 0 3 -32
c3 -27 12 -11 68 110 36 78 69 140 73 139 8 -2 137 -270 137 -283 0 -2 -38 -4
-84 -4 l-85 0 10 32 c14 52 9 57 -11 11 l-19 -43 -156 0 -155 0 0 150 0 150
45 0 45 0 0 -115z m569 33 c45 -87 70 -122 52 -75 -6 16 -11 57 -11 93 l0 64
40 0 40 0 0 -150 0 -150 -44 0 -45 0 -46 85 c-26 47 -48 85 -50 85 -1 0 1 -17
6 -37 5 -21 9 -59 9 -85 l0 -48 -45 0 -45 0 0 150 0 150 48 0 48 0 43 -82z
m356 68 c18 -8 38 -23 44 -34 14 -26 14 -177 1 -203 -19 -35 -64 -49 -155 -49
l-85 0 0 150 0 150 80 0 c47 0 95 -6 115 -14z m335 -18 l19 -32 18 32 c16 29
23 32 66 32 l47 0 -30 -52 c-57 -97 -57 -89 -14 -165 22 -37 41 -71 42 -75 2
-5 -18 -8 -45 -8 -44 0 -49 3 -61 30 -8 17 -18 30 -23 30 -4 0 -15 -13 -24
-30 -14 -27 -21 -30 -60 -30 -25 0 -45 2 -45 5 0 3 18 39 40 78 l40 73 -40 68
c-22 38 -40 70 -40 72 0 2 20 4 45 4 40 0 47 -4 65 -32z"/>
<path d="M1350 976 c0 -72 1 -76 23 -76 41 0 48 13 45 81 l-3 64 -32 3 -33 3
0 -75z"/>
</g>
</svg>
